HIERARCHY
ROOT root
{
	OFFSET	0	13.1	24.9
	CHANNELS 6  Xposition Yposition Zposition Xrotation Yrotation Zrotation
	JOINT spine_1
	{
		OFFSET	0	9.99999	0
		CHANNELS 3  Xrotation Yrotation Zrotation
		JOINT spine_2
		{
			OFFSET	0	112	-10
			CHANNELS 3  Xrotation Yrotation Zrotation
			JOINT spine_3
			{
				OFFSET	0	206.5	19.3
				CHANNELS 3  Xrotation Yrotation Zrotation
				JOINT spine_4
				{
					OFFSET	0	110.4	14.6
					CHANNELS 3  Xrotation Yrotation Zrotation
					JOINT neck_1
					{
						OFFSET	0	71.8	-50.3
						CHANNELS 3  Xrotation Yrotation Zrotation
						JOINT neck_2
						{
							OFFSET	0	86.2	-25.8
							CHANNELS 3  Xrotation Yrotation Zrotation
							JOINT head_ee
							{
								OFFSET	0	179.8	-8.7
								CHANNELS 3  Xrotation Yrotation Zrotation
								End Site
								{
									OFFSET	1	0	0
								}
							}
						}
					}
					JOINT left_clavicle
					{
						OFFSET	-43.2	22.4	-70.8
						CHANNELS 3  Xrotation Yrotation Zrotation
						JOINT left_shoulder
						{
							OFFSET	-93.9	-5.79999	48.7
							CHANNELS 3  Xrotation Yrotation Zrotation
							JOINT left_elbow
							{
								OFFSET	-291.4	-30.8	15.2
								CHANNELS 3  Xrotation Yrotation Zrotation
								JOINT left_lowarm_twist
								{
									OFFSET	-110.7	-3.89999	13.6
									CHANNELS 3  Xrotation Yrotation Zrotation
									JOINT left_hand
									{
										OFFSET	-110.7	-3.89999	13.6
										CHANNELS 3  Xrotation Yrotation Zrotation
										JOINT left_ee
										{
											OFFSET	-80.8	-5.10001	12.1
											CHANNELS 3  Xrotation Yrotation Zrotation
											End Site
											{
												OFFSET	1	0	0
											}
										}
									}
								}
							}
						}
					}
					JOINT right_clavicle
					{
						OFFSET	43.2	22.4	-70.8
						CHANNELS 3  Xrotation Yrotation Zrotation
						JOINT right_shoulder
						{
							OFFSET	93.9	-5.79999	48.7
							CHANNELS 3  Xrotation Yrotation Zrotation
							JOINT right_elbow
							{
								OFFSET	291.4	-30.8	15.2
								CHANNELS 3  Xrotation Yrotation Zrotation
								JOINT right_lowarm_twist
								{
									OFFSET	110.7	-3.89999	13.6
									CHANNELS 3  Xrotation Yrotation Zrotation
									JOINT right_hand
									{
										OFFSET	110.7	-3.89999	13.6
										CHANNELS 3  Xrotation Yrotation Zrotation
										JOINT right_ee
										{
											OFFSET	80.8	-5.10001	12.1
											CHANNELS 3  Xrotation Yrotation Zrotation
											End Site
											{
												OFFSET	1	0	0
											}
										}
									}
								}
							}
						}
					}
				}
			}
		}
	}
	JOINT left_hip
	{
		OFFSET	-82.8	-127.5	0.300001
		CHANNELS 3  Xrotation Yrotation Zrotation
		JOINT left_knee
		{
			OFFSET	-28.2	-396.7	2.2
			CHANNELS 3  Xrotation Yrotation Zrotation
			JOINT left_ankle
			{
				OFFSET	-11.7	-411.3	35.4
				CHANNELS 3  Xrotation Yrotation Zrotation
				JOINT left_toes
				{
					OFFSET	0	-60	-88.6
					CHANNELS 3  Xrotation Yrotation Zrotation
					JOINT left_foot_ee
					{
						OFFSET	-22.5	-16.5	-42.2
						CHANNELS 3  Xrotation Yrotation Zrotation
						End Site
						{
							OFFSET	1	0	0
						}
					}
				}
			}
		}
	}
	JOINT right_hip
	{
		OFFSET	82.8	-127.5	0.300001
		CHANNELS 3  Xrotation Yrotation Zrotation
		JOINT right_knee
		{
			OFFSET	28.2	-396.7	2.2
			CHANNELS 3  Xrotation Yrotation Zrotation
			JOINT right_ankle
			{
				OFFSET	11.7	-411.3	35.4
				CHANNELS 3  Xrotation Yrotation Zrotation
				JOINT right_toes
				{
					OFFSET	0	-60	-88.6
					CHANNELS 3  Xrotation Yrotation Zrotation
					JOINT right_foot_ee
					{
						OFFSET	22.5	-16.5	-42.2
						CHANNELS 3  Xrotation Yrotation Zrotation
						End Site
						{
							OFFSET	1	0	0
						}
					}
				}
			}
		}
	}
}
MOTION
Frames: 16
Frame Time: 0.02
391.555 721.904 -1204.45 -164.472636296 -22.2250402226 179.444599032 3.31477 0.437058 1.4821 3.31593 0.341874 1.5069 3.3245 0.107164 1.54146 3.32136 0.349236 1.50521 2.22093 9.72971 3.24204 2.40277 14.3409 4.33032 -0.0 0.0 -0.0 6.57852 20.0718 12.1059 -34.8308 -26.678 70.2955 0.517798 -14.3865 0.0653515 23.3698 0.223281 -2.9563 3.75999 6.35482 28.4592 -0.0 0.0 -0.0 9.62344 -5.13975 -18.5815 16.7659 -30.7191 -71.5263 1.01922 26.7883 -0.242709 85.3716 4.47107 8.88312 -5.06513 -8.87396 30.5174 0.0 0.0 0.0 35.0473 2.86916 5.7899 -17.2774 0.318114 2.62227 2.16774 24.3635 -0.328303 13.37 -0.0 -0.0 -0.0 0.0 -0.0 17.8051 15.259 6.99482 -19.3191 -0.303119 -2.93515 5.9832 -29.6617 0.926174 16.847 -0.0 -0.0 0.0 0.0 0.0 
402.076670685 716.706 -1189.93921429 -164.953658797 -21.3365578476 179.271221821 3.48945 0.503839 1.60071 3.49078 0.400975 1.62952 3.50164 0.151991 1.67122 3.49798 0.413986 1.62626 2.81517 11.1474 3.68141 3.06507 16.3529 4.86844 -0.0 0.0 -0.0 6.89473 18.8479 12.6836 -36.9551 -27.7904 69.4851 0.511355 -14.2148 0.06376 23.4701 0.221627 -2.96901 3.02397 3.38719 21.9781 -0.0 0.0 -0.0 8.70454 -7.67581 -16.6358 11.2071 -29.9161 -75.2251 0.875215 23.4392 -0.181564 83.9977 4.30692 8.81887 -4.14003 -8.89068 23.7226 0.0 0.0 0.0 33.1496 5.70652 4.87873 -18.1147 0.313313 2.75064 7.14517 21.1063 -1.05236 9.71679 -0.0 -0.0 -0.0 0.0 -0.0 19.1204 20.4223 5.8367 -23.752 -0.232255 -3.61151 0.184421 -30.2916 0.0290716 16.2623 -0.0 -0.0 0.0 0.0 0.0 
408.243522572 715.896 -1184.49282709 -165.513315161 -20.2882541374 179.374349274 3.46746 0.510021 1.6752 3.46893 0.402406 1.70425 3.4803 0.141548 1.74537 3.47629 0.41538 1.70113 3.20309 11.2881 2.4445 3.50135 17.584 3.45982 -0.0 0.0 -0.0 6.82114 17.2718 12.6792 -34.7824 -27.0264 70.463 0.512705 -14.2508 0.064092 20.3418 0.262717 -2.57158 2.3863 5.68235 18.3378 -0.0 0.0 -0.0 8.84369 -8.13177 -16.8647 12.8582 -28.6903 -74.6597 0.833233 22.4287 -0.165204 83.1132 4.20206 8.77543 -4.64704 -13.2967 24.5157 0.0 0.0 0.0 34.3826 -1.05138 5.61913 -20.5314 0.288943 3.12062 4.11965 25.3909 -0.62425 10.2504 -0.0 -0.0 -0.0 0.0 -0.0 19.4551 21.4333 5.16252 -25.7582 -0.183029 -3.91542 -0.375642 -29.3311 -0.0588967 12.1896 -0.0 -0.0 0.0 0.0 0.0 
413.493748706 721.376 -1167.95650016 -172.536616035 -32.732160018 178.438055942 -0.31399 0.684484 1.67173 -0.31262 0.576736 1.71188 -0.294109 0.195 1.79585 -0.298294 0.47613 1.74254 14.0265 7.08564 0.514501 14.23 10.6673 0.509657 -0.0 0.0 -0.0 7.51145 24.687 13.0404 -23.8428 -28.3458 61.218 0.702908 -19.1982 0.118878 31.555 0.0156812 -3.98039 2.45225 -8.54343 13.0382 -0.0 0.0 -0.0 9.85995 -17.221 -17.6699 -11.5354 24.5374 -62.8566 2.42911 50.2643 -1.13968 75.5685 3.33773 8.34049 -3.95755 -1.89743 26.4567 0.0 0.0 0.0 30.6711 -21.1838 12.0605 -22.5185 0.257228 3.42387 11.0835 28.5389 -1.6778 -15.138 0.0 0.0 -0.0 0.0 -0.0 8.96536 12.9381 4.73284 -23.8823 -0.229383 -3.63129 -3.40643 -31.1701 -0.54417 12.872 -0.0 -0.0 0.0 0.0 0.0 
413.356192527 721.376 -1167.87415784 -172.554532106 -32.5182599406 178.404825255 -0.31399 0.684484 1.67173 -0.31262 0.576736 1.71188 -0.294109 0.195 1.79585 -0.298294 0.47613 1.74254 14.0265 7.08564 0.514501 14.23 10.6673 0.509657 -0.0 0.0 -0.0 7.51145 24.687 13.0404 -23.8428 -28.3458 61.218 0.702908 -19.1982 0.118878 31.555 0.0156812 -3.98039 2.45225 -8.54343 13.0382 -0.0 0.0 -0.0 9.85995 -17.221 -17.6699 -11.5354 24.5374 -62.8566 2.42911 50.2643 -1.13968 75.5685 3.33773 8.34049 -3.95755 -1.89743 26.4567 0.0 0.0 0.0 30.6711 -21.1838 12.0605 -22.5185 0.257228 3.42387 11.0835 28.5389 -1.6778 -15.138 0.0 0.0 -0.0 0.0 -0.0 8.96536 12.9381 4.73284 -23.8823 -0.229383 -3.63129 -3.40643 -31.1701 -0.54417 12.872 -0.0 -0.0 0.0 0.0 0.0 
423.012283305 719.538 -1166.42998937 -172.465569289 -32.5787568737 179.015612958 0.108326 0.564465 1.49287 0.109444 0.468337 1.52575 0.122747 0.140703 1.58978 0.119432 0.389984 1.54763 14.7812 7.08912 0.939504 14.9607 10.1786 1.04485 -0.0 0.0 -0.0 7.7534 25.5996 13.2659 -23.5415 -27.9933 61.8471 0.607606 -16.7514 0.0894611 32.3652 -0.0127837 -4.07994 1.22815 -5.78901 5.83904 -0.0 0.0 -0.0 9.99234 -19.0153 -17.6093 -11.5298 24.6808 -61.6722 2.38587 49.7579 -1.10654 69.4668 2.68523 7.90826 -3.90595 -4.70464 24.4934 0.0 0.0 0.0 30.3802 -21.0465 12.0977 -22.84 0.251108 3.47283 10.949 29.0864 -1.66421 -16.6445 0.0 0.0 -0.0 0.0 -0.0 9.85839 16.3465 3.68982 -27.7825 -0.122591 -4.22021 -7.12728 -27.8186 -1.12025 8.11228 -0.0 -0.0 0.0 0.0 0.0 
432.44896245 717.748 -1159.10203356 -173.600086904 -29.9472792455 178.351886722 0.0261179 0.76238 1.55836 0.0272256 0.661685 1.6037 0.0467838 0.311431 1.70664 0.0431833 0.577018 1.63607 14.3516 6.55778 0.396853 14.5305 9.90975 0.364019 -0.0 0.0 -0.0 7.64841 25.4482 13.1397 -24.1942 -29.727 61.5305 0.624554 -17.1914 0.094408 31.6563 0.0121984 -3.99286 0.297109 -0.117253 1.93559 -0.0 0.0 -0.0 9.76949 -19.757 -17.1278 -9.66881 21.4838 -63.3713 2.49363 51.0004 -1.18955 65.1396 2.25224 7.56105 -3.82524 -4.80969 23.8486 0.0 0.0 0.0 29.384 -17.4101 10.9329 -25.4251 0.191938 3.86509 13.4666 27.6618 -2.01128 -17.6137 0.0 0.0 -0.0 0.0 -0.0 11.9316 14.5854 3.80133 -31.8974 0.0332752 -4.83234 -12.332 -29.5634 -1.97299 13.0402 -0.0 -0.0 0.0 0.0 0.0 
464.936643009 718.775 -1119.72895311 -171.329790219 -24.0562501202 -179.519042037 1.86929 0.422769 1.86769 1.87118 0.303088 1.8908 1.88129 -0.0382074 1.91454 1.87627 0.264583 1.89657 14.678 4.9894 -2.27549 14.9375 9.94249 -3.07926 -0.0 0.0 -0.0 8.00325 12.59 15.0023 -24.4357 -27.4114 61.6321 0.213949 -6.04999 0.0113062 35.3913 -0.131497 -4.44803 1.35022 -1.49768 8.44834 -0.0 0.0 -0.0 8.54448 -19.8718 -15.1651 -11.5437 24.3675 -61.1185 1.80599 41.813 -0.689923 59.6436 1.7423 7.07496 -4.41845 -17.8161 19.9982 0.0 0.0 0.0 24.0867 -10.4307 7.42405 -19.9167 0.29662 3.02662 19.735 26.1138 -2.85214 -21.204 0.0 0.0 -0.0 0.0 -0.0 20.1782 18.902 -0.58312 -44.786 0.798978 -6.65488 -19.4143 -25.66 -3.05057 7.59662 -0.0 -0.0 0.0 0.0 0.0 
464.960300954 718.775 -1119.74945037 -171.328712944 -24.072068745 -179.516400099 1.86929 0.422769 1.86769 1.87118 0.303088 1.8908 1.88129 -0.0382074 1.91454 1.87627 0.264583 1.89657 14.678 4.9894 -2.27549 14.9375 9.94249 -3.07926 -0.0 0.0 -0.0 8.00325 12.59 15.0023 -24.4357 -27.4114 61.6321 0.213949 -6.04999 0.0113062 35.3913 -0.131497 -4.44803 1.35022 -1.49768 8.44834 -0.0 0.0 -0.0 8.54448 -19.8718 -15.1651 -11.5437 24.3675 -61.1185 1.80599 41.813 -0.689923 59.6436 1.7423 7.07496 -4.41845 -17.8161 19.9982 0.0 0.0 0.0 24.0867 -10.4307 7.42405 -19.9167 0.29662 3.02662 19.735 26.1138 -2.85214 -21.204 0.0 0.0 -0.0 0.0 -0.0 20.1782 18.902 -0.58312 -44.786 0.798978 -6.65488 -19.4143 -25.66 -3.05057 7.59662 -0.0 -0.0 0.0 0.0 0.0 
480.616858568 721.112 -1086.26359878 -169.971061055 -18.7544287275 -179.165240737 2.58021 0.313578 2.33145 2.58322 0.164628 2.34667 2.58939 -0.226791 2.34148 2.58177 0.145744 2.34791 12.5418 5.9108 -0.950514 12.7563 10.3334 -1.27834 -0.0 0.0 -0.0 7.48451 6.29581 14.4152 -22.8479 -26.4474 58.8562 0.178215 -5.04527 0.00785162 38.998 -0.298175 -4.87794 1.80786 2.55123 13.1769 -0.0 0.0 -0.0 7.60437 -19.9424 -13.6916 -14.9995 29.7162 -61.8884 1.44792 35.6482 -0.465571 59.3948 1.72035 7.05183 -4.9511 -16.1915 24.6571 0.0 0.0 0.0 21.4378 2.87234 4.66981 -18.8454 0.307591 2.86261 25.7027 19.4511 -3.49914 -26.3366 0.0 0.0 -0.0 0.0 -0.0 27.7726 19.5595 -2.25354 -53.3781 1.52893 -7.75675 -14.7415 -31.2273 -2.39132 8.12019 -0.0 -0.0 0.0 0.0 0.0 
481.109753885 721.112 -1086.63664702 -169.956803959 -18.9900954846 -179.1211639 2.58021 0.313578 2.33145 2.58322 0.164628 2.34667 2.58939 -0.226791 2.34148 2.58177 0.145744 2.34791 12.5418 5.9108 -0.950514 12.7563 10.3334 -1.27834 -0.0 0.0 -0.0 7.48451 6.29581 14.4152 -22.8479 -26.4474 58.8562 0.178215 -5.04527 0.00785162 38.998 -0.298175 -4.87794 1.80786 2.55123 13.1769 -0.0 0.0 -0.0 7.60437 -19.9424 -13.6916 -14.9995 29.7162 -61.8884 1.44792 35.6482 -0.465571 59.3948 1.72035 7.05183 -4.9511 -16.1915 24.6571 0.0 0.0 0.0 21.4378 2.87234 4.66981 -18.8454 0.307591 2.86261 25.7027 19.4511 -3.49914 -26.3366 0.0 0.0 -0.0 0.0 -0.0 27.7726 19.5595 -2.25354 -53.3781 1.52893 -7.75675 -14.7415 -31.2273 -2.39132 8.12019 -0.0 -0.0 0.0 0.0 0.0 
485.589233935 718.279 -1082.45981327 -170.023482873 -17.4536272789 -179.308574906 2.65694 0.485427 2.41189 2.66011 0.331015 2.43787 2.6736 -0.074075 2.45911 2.6653 0.315107 2.43997 12.1744 5.04693 -1.92559 12.3953 9.88712 -2.47461 -0.0 0.0 -0.0 7.56504 3.85385 14.646 -22.1315 -25.8455 56.5156 0.301796 -8.50299 0.0224353 41.1785 -0.411977 -5.13253 2.34868 1.88398 16.6401 -0.0 0.0 -0.0 7.14141 -19.1937 -13.0412 -16.0958 32.9344 -62.6735 1.33324 33.4409 -0.400525 59.8414 1.75983 7.09328 -5.12942 -13.8258 27.5686 0.0 0.0 0.0 20.5351 8.68224 3.94224 -18.3203 0.311847 2.78216 27.9932 14.6872 -3.70874 -29.1948 0.0 0.0 -0.0 0.0 -0.0 31.5939 19.988 -1.86813 -56.3034 1.81432 -8.10575 -15.1251 -28.6503 -2.41182 8.48195 -0.0 -0.0 0.0 0.0 0.0 
485.358360274 718.279 -1082.28219569 -170.02936411 -17.3469080507 -179.328241609 2.65694 0.485427 2.41189 2.66011 0.331015 2.43787 2.6736 -0.074075 2.45911 2.6653 0.315107 2.43997 12.1744 5.04693 -1.92559 12.3953 9.88712 -2.47461 -0.0 0.0 -0.0 7.56504 3.85385 14.646 -22.1315 -25.8455 56.5156 0.301796 -8.50299 0.0224353 41.1785 -0.411977 -5.13253 2.34868 1.88398 16.6401 -0.0 0.0 -0.0 7.14141 -19.1937 -13.0412 -16.0958 32.9344 -62.6735 1.33324 33.4409 -0.400525 59.8414 1.75983 7.09328 -5.12942 -13.8258 27.5686 0.0 0.0 0.0 20.5351 8.68224 3.94224 -18.3203 0.311847 2.78216 27.9932 14.6872 -3.70874 -29.1948 0.0 0.0 -0.0 0.0 -0.0 31.5939 19.988 -1.86813 -56.3034 1.81432 -8.10575 -15.1251 -28.6503 -2.41182 8.48195 -0.0 -0.0 0.0 0.0 0.0 
485.344605011 718.279 -1082.2716353 -170.029712921 -17.3405546406 -179.32941171 2.65694 0.485427 2.41189 2.66011 0.331015 2.43787 2.6736 -0.074075 2.45911 2.6653 0.315107 2.43997 12.1744 5.04693 -1.92559 12.3953 9.88712 -2.47461 -0.0 0.0 -0.0 7.56504 3.85385 14.646 -22.1315 -25.8455 56.5156 0.301796 -8.50299 0.0224353 41.1785 -0.411977 -5.13253 2.34868 1.88398 16.6401 -0.0 0.0 -0.0 7.14141 -19.1937 -13.0412 -16.0958 32.9344 -62.6735 1.33324 33.4409 -0.400525 59.8414 1.75983 7.09328 -5.12942 -13.8258 27.5686 0.0 0.0 0.0 20.5351 8.68224 3.94224 -18.3203 0.311847 2.78216 27.9932 14.6872 -3.70874 -29.1948 0.0 0.0 -0.0 0.0 -0.0 31.5939 19.988 -1.86813 -56.3034 1.81432 -8.10575 -15.1251 -28.6503 -2.41182 8.48195 -0.0 -0.0 0.0 0.0 0.0 
491.410223329 712.966 -1078.47950741 -169.704124855 -17.5186413056 -179.611276413 2.70966 0.633986 2.61438 2.71334 0.466401 2.64939 2.73421 0.0276898 2.68996 2.7244 0.45202 2.65188 10.3146 5.76467 -2.039 10.5745 11.2925 -2.49683 -0.0 0.0 -0.0 7.3251 3.66078 14.1883 -21.2231 -25.9995 53.0215 0.487894 -13.5874 0.0581235 41.8198 -0.447285 -5.20657 2.53905 0.753335 17.5262 -0.0 0.0 -0.0 6.63282 -16.6277 -12.4165 -16.2387 35.1202 -62.0593 1.18502 30.4128 -0.322115 63.4696 2.09236 7.41851 -5.28956 -16.6863 26.645 0.0 0.0 0.0 19.1689 13.3269 4.07155 -16.496 0.320901 2.50241 32.1534 7.73526 -4.11596 -30.4226 0.0 0.0 -0.0 0.0 -0.0 34.153 20.4346 -0.595406 -60.5584 2.26058 -8.58668 -9.19745 -25.8376 -1.43352 9.16417 -0.0 -0.0 0.0 0.0 0.0 
493.858548194 712.966 -1080.4596187 -169.638462658 -18.6228242231 -179.399603246 2.70966 0.633986 2.61438 2.71334 0.466401 2.64939 2.73421 0.0276898 2.68996 2.7244 0.45202 2.65188 10.3146 5.76467 -2.039 10.5745 11.2925 -2.49683 -0.0 0.0 -0.0 7.3251 3.66078 14.1883 -21.2231 -25.9995 53.0215 0.487894 -13.5874 0.0581235 41.8198 -0.447285 -5.20657 2.53905 0.753335 17.5262 -0.0 0.0 -0.0 6.63282 -16.6277 -12.4165 -16.2387 35.1202 -62.0593 1.18502 30.4128 -0.322115 63.4696 2.09236 7.41851 -5.28956 -16.6863 26.645 0.0 0.0 0.0 19.1689 13.3269 4.07155 -16.496 0.320901 2.50241 32.1534 7.73526 -4.11596 -30.4226 0.0 0.0 -0.0 0.0 -0.0 34.153 20.4346 -0.595406 -60.5584 2.26058 -8.58668 -9.19745 -25.8376 -1.43352 9.16417 -0.0 -0.0 0.0 0.0 0.0 
